<?xml version="1.0" standalone="no"?><!DOCTYPE svg PUBLIC "-//W3C//DTD SVG 1.1//EN" "http://www.w3.org/Graphics/SVG/1.1/DTD/svg11.dtd"><svg t="1638091142018" class="icon" viewBox="0 0 1024 1024" version="1.1" xmlns="http://www.w3.org/2000/svg" p-id="4496" xmlns:xlink="http://www.w3.org/1999/xlink" width="200" height="200"><defs><style type="text/css"></style></defs><path d="M512 511.666m-160 0a80 80 0 1 0 320 0 80 80 0 1 0-320 0Z" p-id="4497"></path><path d="M355.61 353.774c42.308-42.308 98.558-65.858 158.39-65.858s116.082 23.674 158.39 65.982c26.844 26.844 46.022 59.102 56.464 95.102L897 449l0-226c0-53.02-40.98-94-94-94l-576 0c-53.02 0-98 40.98-98 94l0 226 170.144 0C309.588 413 328.766 380.618 355.61 353.774zM833 295.4c0 14.138-11.46 25.6-25.6 25.6l-76.8 0c-14.138 0-25.6-11.46-25.6-25.6l0-76.8c0-14.138 11.46-25.6 25.6-25.6l76.8 0c14.138 0 25.6 11.46 25.6 25.6L833 295.4z" p-id="4498"></path><path d="M672.39 670.558c-42.308 42.308-98.558 65.358-158.39 65.358s-116.082-22.924-158.39-65.232c-42.23-42.23-65.518-99.684-65.606-157.684L129 513l0 286c0 53.02 44.98 98 98 98l576 0c53.02 0 94-44.98 94-98l0-286-159.004 0C737.91 571 714.622 628.328 672.39 670.558z" p-id="4499"></path></svg>