<?xml version="1.0" standalone="no"?><!DOCTYPE svg PUBLIC "-//W3C//DTD SVG 1.1//EN" "http://www.w3.org/Graphics/SVG/1.1/DTD/svg11.dtd"><svg t="1637245110853" class="icon" viewBox="0 0 1024 1024" version="1.1" xmlns="http://www.w3.org/2000/svg" p-id="1091" xmlns:xlink="http://www.w3.org/1999/xlink" width="200" height="200"><defs><style type="text/css"></style></defs><path d="M893.46344533 276.19859733c-18.4708128 0-33.44546667 14.97574507-33.44546666 33.44546667l0 535.1340192c0 43.0323456-35.00853333 78.04087787-78.04087787 78.04087787L235.69422827 922.81896213c-43.0323456 0-78.04087787-35.00853333-78.04087787-78.04087786l0-646.6203648c0-43.0323456 35.00853333-78.04087787 78.04087787-78.04087787l434.79652693 0c18.4708128 0 33.44546667-14.97574507 33.44546667-33.44546667s-14.97574507-33.44546667-33.44546667-33.44546666L235.69422827 53.2259072c-79.918304 0-144.93181227 65.01350827-144.93181227 144.93181227l0 646.6203648c0 79.918304 65.01350827 144.93181227 144.93181227 144.93181226l546.28287253 0c79.918304 0 144.93181227-65.01350827 144.93181227-144.93181226L926.90891307 309.64515627C926.91000427 291.1743424 911.9342592 276.19859733 893.46344533 276.19859733z" p-id="1092"></path><path d="M537.54281387 464.40834773c6.418176 5.86258987 14.49656533 8.75295147 22.5531232 8.75295147 9.0694944 0 18.105152-3.66316373 24.7034304-10.88142827L924.37547947 90.65217173c12.46086827-13.63098453 11.50250773-34.7902272-2.1284768-47.25109546-13.6364416-12.45541013-34.7902272-11.50250773-47.2565536 2.13393493L535.41433707 417.15725227C522.95456107 430.7882368 523.9118304 451.94748053 537.54281387 464.40834773z" p-id="1093"></path><path d="M344.8698112 600.51080107l0 32.6290048c0 18.4708128 14.97574507 33.44546667 33.44546667 33.44546666 18.4708128 0 33.44546667-14.97574507 33.44546666-33.44546666l0-32.6290048c0-18.4708128-14.97574507-33.44546667-33.44546666-33.44546667C359.84555627 567.0653344 344.8698112 582.04107947 344.8698112 600.51080107z" p-id="1094"></path><path d="M639.35605013 666.5863648c18.4708128 0 33.44546667-14.97574507 33.44546667-33.44546667l0-32.6290048c0-18.4708128-14.97574507-33.44546667-33.44546667-33.44546666-18.4708128 0-33.44546667 14.97574507-33.44546666 33.44546666l0 32.6290048C605.91058347 651.61061973 620.88523733 666.5863648 639.35605013 666.5863648z" p-id="1095"></path><path d="M594.67440853 718.11624427c-15.57390187-9.9678208-36.2441408-5.4216128-46.20541333 10.12500053-0.13098347 0.212848-14.32737813 20.82741973-36.37512427 20.82741973-21.40483733 0-34.71927893-19.3789632-35.62852053-20.74009706-9.82592213-15.4549248-30.28877227-20.1364832-45.8681312-10.45682454-15.69397013 9.74951573-20.511968 30.3706368-10.76245227 46.0591488 12.00351787 19.3254784 44.9479744 52.03089067 92.259104 52.03089067 47.07099307 0 80.41931413-32.46090987 92.70553814-51.63903253C614.7617728 748.76412907 610.2275712 728.0775168 594.67440853 718.11624427z" p-id="1096"></path></svg>